<svg width="64" height="64" viewBox="0 0 64 64" fill="none" xmlns="http://www.w3.org/2000/svg">
<path d="M40.8801 32.2744C40.8801 37.0268 37.0275 40.8795 32.277 40.8795C27.5236 40.8795 23.671 37.0268 23.671 32.2744C23.671 27.521 27.5236 23.6684 32.277 23.6684C37.0275 23.6684 40.8801 27.521 40.8801 32.2744Z" fill="#F6C833"/>
<path d="M32.2767 20.4003C31.7071 20.4003 31.2441 19.9401 31.2441 19.3705V12.03C31.2441 11.4604 31.7071 11.0002 32.2767 11.0002C32.8464 11.0002 33.3065 11.4604 33.3065 12.03V19.3705C33.3065 19.9401 32.8464 20.4003 32.2767 20.4003Z" fill="#F6C833"/>
<path d="M32.2767 53.5499C31.7071 53.5499 31.2441 53.0881 31.2441 52.5185V45.1797C31.2441 44.6101 31.7071 44.1482 32.2767 44.1482C32.8464 44.1482 33.3065 44.6101 33.3065 45.1797V52.5185C33.3065 53.0881 32.8464 53.5499 32.2767 53.5499Z" fill="#F6C833"/>
<path d="M40.6724 23.8792C40.2684 23.4751 40.2684 22.8213 40.6724 22.4201L45.8607 17.229C46.2647 16.8277 46.9185 16.8277 47.3198 17.229C47.7238 17.6331 47.7238 18.2869 47.3198 18.6881L42.1315 23.8792C41.7275 24.2804 41.0765 24.2804 40.6724 23.8792Z" fill="#F6C833"/>
<path d="M17.2318 47.3187C16.8288 46.9158 16.8288 46.2626 17.2318 45.8599L22.4209 40.6705C22.8235 40.2678 23.4768 40.2678 23.8797 40.6705C24.2824 41.0734 24.2824 41.7264 23.8797 42.1293L18.6903 47.3187C18.2874 47.7216 17.6344 47.7216 17.2318 47.3187Z" fill="#F6C833"/>
<path d="M44.149 32.2748C44.149 31.7052 44.612 31.2422 45.1816 31.2422H52.5193C53.0889 31.2422 53.5519 31.7052 53.5519 32.2748C53.5519 32.8445 53.0889 33.3074 52.5193 33.3074H45.1816C44.612 33.3074 44.149 32.8445 44.149 32.2748Z" fill="#F6C833"/>
<path d="M11 32.2748C11 31.7052 11.4619 31.2422 12.0315 31.2422H19.3705C19.9401 31.2422 20.4017 31.7052 20.4017 32.2748C20.4017 32.8445 19.9401 33.3074 19.3705 33.3074H12.0315C11.4619 33.3074 11 32.8445 11 32.2748Z" fill="#F6C833"/>
<path d="M40.6724 40.6705C41.0765 40.2678 41.7275 40.2678 42.1315 40.6705L47.3198 45.8599C47.7238 46.2626 47.7238 46.9158 47.3198 47.3187C46.9185 47.7216 46.2647 47.7216 45.8607 47.3187L40.6724 42.1293C40.2684 41.7264 40.2684 41.0734 40.6724 40.6705Z" fill="#F6C833"/>
<path d="M17.2318 17.229C17.6344 16.8277 18.2874 16.8277 18.6903 17.229L23.8797 22.4201C24.2824 22.8213 24.2824 23.4751 23.8797 23.8792C23.4768 24.2804 22.8235 24.2804 22.4209 23.8792L17.2318 18.6881C16.8288 18.2869 16.8288 17.6331 17.2318 17.229Z" fill="#F6C833"/>
</svg>
