<svg width="24" height="24" viewBox="0 0 24 24" fill="none" xmlns="http://www.w3.org/2000/svg">
<path d="M11.9971 18.532C12.242 18.532 12.4784 18.622 12.6614 18.7847C12.8445 18.9475 12.9614 19.1717 12.9901 19.415L12.9971 19.532V20.988C12.9965 21.2428 12.8987 21.4878 12.7237 21.6729C12.5486 21.8581 12.3095 21.9694 12.0552 21.9842C11.8008 21.999 11.5504 21.9162 11.355 21.7526C11.1597 21.589 11.0341 21.357 11.0041 21.104L10.9971 20.988V19.532C10.9971 19.2668 11.1024 19.0124 11.2899 18.8249C11.4775 18.6374 11.7318 18.532 11.9971 18.532ZM18.0331 16.6L19.0631 17.63C19.2451 17.8187 19.3457 18.0714 19.3432 18.3336C19.3408 18.5958 19.2354 18.8465 19.0499 19.0318C18.8643 19.2171 18.6135 19.3221 18.3513 19.3242C18.0891 19.3263 17.8365 19.2253 17.6481 19.043L16.6191 18.014C16.4369 17.8254 16.3361 17.5728 16.3384 17.3106C16.3407 17.0484 16.4458 16.7976 16.6312 16.6122C16.8166 16.4268 17.0675 16.3216 17.3297 16.3193C17.5918 16.317 17.8444 16.4178 18.0331 16.6ZM7.37305 16.6C7.56052 16.7875 7.66584 17.0418 7.66584 17.307C7.66584 17.5722 7.56052 17.8265 7.37305 18.014L6.34505 19.044C6.15741 19.2316 5.90292 19.3371 5.63755 19.3371C5.37219 19.3371 5.11769 19.2316 4.93005 19.044C4.74241 18.8564 4.637 18.6019 4.637 18.3365C4.637 18.0711 4.74241 17.8166 4.93005 17.629L5.96005 16.599C6.14758 16.4115 6.40189 16.3062 6.66705 16.3062C6.93222 16.3062 7.18652 16.4115 7.37405 16.599L7.37305 16.6ZM12.0101 6.472C13.4754 6.472 14.8807 7.0541 15.9168 8.09024C16.953 9.12637 17.5351 10.5317 17.5351 11.997C17.5351 13.4623 16.953 14.8676 15.9168 15.9038C14.8807 16.9399 13.4754 17.522 12.0101 17.522C10.5447 17.522 9.13943 16.9399 8.10329 15.9038C7.06715 14.8676 6.48505 13.4623 6.48505 11.997C6.48505 10.5317 7.06715 9.12637 8.10329 8.09024C9.13943 7.0541 10.5447 6.472 12.0101 6.472ZM11.2501 9C11.0688 9.00001 10.8937 9.06564 10.7571 9.18477C10.6205 9.30389 10.5317 9.46845 10.5071 9.648L10.5001 9.75V12.754L10.5071 12.856C10.5294 13.0183 10.6042 13.1688 10.7201 13.2846C10.8361 13.4003 10.9867 13.4749 11.1491 13.497L11.2501 13.504H13.2501L13.3521 13.497C13.5142 13.4747 13.6646 13.4 13.7804 13.2843C13.8961 13.1686 13.9708 13.0182 13.9931 12.856L14.0001 12.754L13.9931 12.652C13.9708 12.4898 13.8961 12.3394 13.7804 12.2237C13.6646 12.108 13.5142 12.0333 13.3521 12.011L13.2501 12.004H12.0001V9.75L11.9941 9.648C11.9694 9.46828 11.8804 9.30358 11.7436 9.18444C11.6068 9.06529 11.4315 8.99977 11.2501 9ZM20.9771 11.018C21.2319 11.0183 21.4771 11.1159 21.6624 11.2908C21.8478 11.4658 21.9593 11.705 21.9742 11.9594C21.9892 12.2138 21.9064 12.4644 21.7428 12.6598C21.5792 12.8553 21.3471 12.9809 21.0941 13.011L20.9771 13.018H19.5221C19.2672 13.0177 19.022 12.9201 18.8367 12.7452C18.6513 12.5702 18.5398 12.331 18.5249 12.0766C18.5099 11.8222 18.5927 11.5716 18.7563 11.3762C18.9199 11.1807 19.152 11.0551 19.4051 11.025L19.5221 11.018H20.9781H20.9771ZM4.48005 10.99C4.73493 10.9903 4.98008 11.0879 5.16542 11.2628C5.35076 11.4378 5.46229 11.677 5.47722 11.9314C5.49216 12.1858 5.40938 12.4364 5.24579 12.6318C5.0822 12.8273 4.85015 12.9529 4.59705 12.983L4.48005 12.99H3.02305C2.76826 12.9895 2.52327 12.8917 2.33813 12.7166C2.15299 12.5416 2.04164 12.3025 2.02684 12.0481C2.01203 11.7937 2.09488 11.5433 2.25847 11.348C2.42205 11.1526 2.65404 11.0271 2.90705 10.997L3.02305 10.99H4.48005ZM6.25005 4.874L6.34505 4.957L7.37405 5.987C7.5534 6.16696 7.65753 6.40843 7.66528 6.66238C7.67304 6.91633 7.58384 7.16371 7.4158 7.35428C7.24777 7.54484 7.0135 7.66431 6.76058 7.6884C6.50765 7.71249 6.25504 7.63941 6.05405 7.484L5.96005 7.4L4.93005 6.371C4.7507 6.19104 4.64658 5.94957 4.63882 5.69562C4.63107 5.44167 4.72027 5.19429 4.8883 5.00372C5.05633 4.81316 5.2906 4.6937 5.54353 4.6696C5.79645 4.64551 6.04906 4.71859 6.25005 4.874ZM19.0631 4.957C19.2352 5.12919 19.3387 5.35829 19.3539 5.60132C19.3692 5.84435 19.2953 6.0846 19.1461 6.277L19.0631 6.371L18.0331 7.401C17.8531 7.58035 17.6116 7.68447 17.3577 7.69223C17.1037 7.69998 16.8563 7.61079 16.6658 7.44275C16.4752 7.27472 16.3557 7.04045 16.3317 6.78753C16.3076 6.5346 16.3806 6.28199 16.5361 6.081L16.6191 5.986L17.6491 4.956C17.8366 4.76853 18.0909 4.66321 18.3561 4.66321C18.6212 4.66321 18.8755 4.76953 19.0631 4.957ZM12.0001 2.013C12.245 2.01303 12.4814 2.10296 12.6644 2.26572C12.8475 2.42847 12.9644 2.65275 12.9931 2.896L13.0001 3.013V4.468C13.0021 4.72443 12.9055 4.97185 12.7303 5.15911C12.5551 5.34637 12.3147 5.45917 12.0587 5.47419C11.8027 5.48921 11.5507 5.40531 11.3548 5.23982C11.1589 5.07433 11.034 4.83991 11.0061 4.585L11.0001 4.468V3.013C11.0001 2.74778 11.1054 2.49343 11.2929 2.30589C11.4805 2.11836 11.7348 2.013 12.0001 2.013Z" fill="#DAD8F7"/>
</svg>
